<svg viewBox="0 0 64 64" xmlns="http://www.w3.org/2000/svg" xmlns:bx="https://boxy-svg.com">
  <g transform="matrix(0.710795, 0, 0, 0.710795, -137.277298, -122.575851)">
    <rect width="90.04" height="90.04" style="fill: none;" x="193.126" y="172.455" bx:origin="0 0.000004"></rect>
    <path d="M 230.268 179.24 C 228.468 180.14 225.368 182.74 223.468 185.04 C 219.468 189.64 208.068 211.84 199.768 230.64 C 193.868 244.34 192.568 248.54 193.568 251.64 C 194.868 255.74 198.368 256.34 223.868 256.94 C 237.168 257.24 248.068 257.24 248.068 256.84 C 248.068 256.54 246.668 252.74 244.868 248.44 L 241.668 240.74 L 228.968 240.44 L 216.168 240.14 L 220.968 229.14 C 226.168 217.04 231.068 207.24 233.368 204.24 C 234.768 202.34 234.868 202.34 237.368 204.84 C 239.868 207.34 246.068 218.54 246.068 220.54 C 246.068 221.14 243.368 221.64 239.968 221.84 L 233.968 222.14 L 231.068 228.64 L 228.168 235.14 L 240.868 235.64 L 253.568 236.14 L 257.568 246.34 L 261.568 256.54 L 272.268 256.64 L 283.068 256.64 L 280.668 251.34 C 277.968 245.44 266.868 221.54 259.168 205.34 C 247.968 181.64 239.968 174.34 230.268 179.24 Z" style="fill: rgb(0, 149, 255);"></path>
    <path d="M 259.266 205.443 C 248.066 181.743 234.966 202.443 237.466 204.943 C 239.966 207.443 246.166 218.643 246.166 220.643 C 246.166 221.243 243.466 221.743 240.066 221.943 L 234.066 222.243 L 231.166 228.743 L 228.266 235.243 L 240.966 235.743 L 253.666 236.243 L 257.666 246.443 L 261.666 256.643 L 272.366 256.743 L 283.166 256.743 L 280.766 251.443 C 278.066 245.543 266.966 221.643 259.266 205.443 Z" style="fill: rgb(4, 105, 178);"></path>
    <path style="fill: rgb(4, 105, 178);" d="M 233.232 204.36 C 234.632 202.46 207.932 211.96 199.632 230.76 C 193.732 244.46 192.432 248.66 193.432 251.76 C 194.732 255.86 198.232 256.46 223.732 257.06 C 237.032 257.36 241.532 240.86 241.532 240.86 L 228.832 240.56 L 216.032 240.26 L 220.832 229.26 C 226.032 217.16 230.932 207.36 233.232 204.36 Z"></path>
  </g>
</svg>